<svg width="24" height="24" viewBox="0 0 24 24" fill="none" xmlns="http://www.w3.org/2000/svg">
<g id="Election Campaign 1" clip-path="url(#clip0_737_3351)">
<path id="Vector" d="M14.75 10.5941L11.55 7.26011C11.27 6.97896 11.0855 6.61687 11.0227 6.22509C10.9599 5.83331 11.0219 5.43169 11.2 5.07711C11.3339 4.80907 11.5296 4.5767 11.771 4.39918C12.0124 4.22166 12.2925 4.10407 12.5882 4.05611C12.884 4.00815 13.1869 4.03119 13.472 4.12335C13.7571 4.2155 14.0163 4.37411 14.228 4.58611L14.75 5.10711L15.272 4.58611C15.4837 4.37411 15.7428 4.2155 16.028 4.12335C16.3131 4.03119 16.616 4.00815 16.9117 4.05611C17.2075 4.10407 17.4876 4.22166 17.729 4.39918C17.9704 4.5767 18.1661 4.80907 18.3 5.07711C18.4776 5.43209 18.5389 5.83395 18.4754 6.22575C18.4119 6.61755 18.2266 6.97943 17.946 7.26011L14.75 10.5941Z" stroke="white" stroke-width="1.5" stroke-linecap="round" stroke-linejoin="round"/>
<path id="Vector_2" d="M4.655 21.2509L3.58 21.7599C3.10486 21.9854 2.55964 22.0128 2.06426 21.8363C1.56888 21.6597 1.16393 21.2936 0.938499 20.8184C0.713065 20.3433 0.685611 19.7981 0.862176 19.3027C1.03874 18.8073 1.40486 18.4024 1.88 18.1769L2.955 17.6689L4.655 21.2509Z" stroke="white" stroke-width="1.5" stroke-linecap="round" stroke-linejoin="round"/>
<path id="Vector_3" d="M4.655 21.251C6.75727 20.2562 9.10695 19.9058 11.408 20.244L12.12 20.349L8.39 12.467L8.02 13.085C6.8222 15.0789 5.0613 16.6738 2.959 17.669L4.655 21.251Z" stroke="white" stroke-width="1.5" stroke-linecap="round" stroke-linejoin="round"/>
<path id="Vector_4" d="M4.655 21.251C4.87649 21.7203 5.19116 22.1396 5.57986 22.4835C5.96856 22.8273 6.42316 23.0884 6.916 23.251" stroke="white" stroke-width="1.5" stroke-linecap="round" stroke-linejoin="round"/>
<path id="Vector_5" d="M12.25 13.212H13.75C14.0152 13.212 14.2696 13.3174 14.4571 13.5049C14.6446 13.6924 14.75 13.9468 14.75 14.212V16.25L18.25 13.25L20.481 13.212C21.2155 13.2117 21.9198 12.9198 22.439 12.4003C22.9583 11.8809 23.25 11.1765 23.25 10.442V3.519C23.25 2.78462 22.9583 2.08031 22.439 1.56102C21.9197 1.04173 21.2154 0.75 20.481 0.75H8.019C7.28462 0.75 6.58031 1.04173 6.06102 1.56102C5.54174 2.08031 5.25 2.78462 5.25 3.519V10.442C5.24938 10.8984 5.36208 11.3479 5.578 11.75" stroke="white" stroke-width="1.5" stroke-linecap="round" stroke-linejoin="round"/>
</g>
<defs>
<clipPath id="clip0_737_3351">
<rect width="24" height="24" fill="white"/>
</clipPath>
</defs>
</svg>
