<svg width="24" height="24" viewBox="0 0 24 24" fill="none" xmlns="http://www.w3.org/2000/svg">
<g id="Job Choose Candidate" clip-path="url(#clip0_737_3338)">
<path id="Vector" d="M23.011 23.2499L23.111 22.1279C23.177 21.4016 22.9761 20.6761 22.546 20.0871C22.1159 19.4982 21.486 19.0861 20.774 18.9279L17.123 18.1169V12.3749C17.082 11.8801 16.861 11.4175 16.5018 11.0747C16.1426 10.732 15.6702 10.5328 15.174 10.5149C14.69 10.5269 14.2301 10.7287 13.8934 11.0766C13.5567 11.4245 13.3702 11.8908 13.374 12.3749V21.5749L11.9 20.4719C11.6048 20.2514 11.2401 20.1447 10.8727 20.1711C10.5052 20.1976 10.1595 20.3555 9.89897 20.6159C9.63839 20.8764 9.48033 21.2219 9.45372 21.5894C9.4271 21.9569 9.5337 22.3216 9.75402 22.6169L10.229 23.2499" stroke="white" stroke-width="1.5" stroke-linecap="round" stroke-linejoin="round"/>
<path id="Vector_2" d="M12.25 3.375C12.25 4.07119 12.5266 4.73887 13.0188 5.23116C13.5111 5.72344 14.1788 6 14.875 6C15.5712 6 16.2389 5.72344 16.7312 5.23116C17.2234 4.73887 17.5 4.07119 17.5 3.375C17.5 2.67881 17.2234 2.01113 16.7312 1.51884C16.2389 1.02656 15.5712 0.75 14.875 0.75C14.1788 0.75 13.5111 1.02656 13.0188 1.51884C12.5266 2.01113 12.25 2.67881 12.25 3.375Z" stroke="white" stroke-width="1.5" stroke-linecap="round" stroke-linejoin="round"/>
<path id="Vector_3" d="M18.625 9C18.2625 8.32034 17.7221 7.75196 17.0616 7.35566C16.4011 6.95935 15.6453 6.75 14.875 6.75C14.1047 6.75 13.3489 6.95935 12.6884 7.35566C12.0279 7.75196 11.4875 8.32034 11.125 9" stroke="white" stroke-width="1.5" stroke-linecap="round" stroke-linejoin="round"/>
<path id="Vector_4" d="M1.75 12.375C1.75 13.0712 2.02656 13.7389 2.51884 14.2312C3.01113 14.7234 3.67881 15 4.375 15C5.07119 15 5.73887 14.7234 6.23116 14.2312C6.72344 13.7389 7 13.0712 7 12.375C7 11.6788 6.72344 11.0111 6.23116 10.5188C5.73887 10.0266 5.07119 9.75 4.375 9.75C3.67881 9.75 3.01113 10.0266 2.51884 10.5188C2.02656 11.0111 1.75 11.6788 1.75 12.375Z" stroke="white" stroke-width="1.5" stroke-linecap="round" stroke-linejoin="round"/>
<path id="Vector_5" d="M8.125 18C7.76251 17.3203 7.22212 16.752 6.56161 16.3557C5.90109 15.9593 5.14529 15.75 4.375 15.75C3.60471 15.75 2.84891 15.9593 2.18839 16.3557C1.52788 16.752 0.987488 17.3203 0.625 18" stroke="white" stroke-width="1.5" stroke-linecap="round" stroke-linejoin="round"/>
<path id="Vector_6" d="M9.625 4.5H8.125" stroke="white" stroke-width="1.5" stroke-linecap="round" stroke-linejoin="round"/>
<path id="Vector_7" d="M9.625 1.5L8.125 0.75" stroke="white" stroke-width="1.5" stroke-linecap="round" stroke-linejoin="round"/>
<path id="Vector_8" d="M20.125 4.5H21.625" stroke="white" stroke-width="1.5" stroke-linecap="round" stroke-linejoin="round"/>
<path id="Vector_9" d="M20.125 1.5L21.625 0.75" stroke="white" stroke-width="1.5" stroke-linecap="round" stroke-linejoin="round"/>
</g>
<defs>
<clipPath id="clip0_737_3338">
<rect width="24" height="24" fill="white"/>
</clipPath>
</defs>
</svg>
