<svg width="24" height="24" viewBox="0 0 24 24" fill="none" xmlns="http://www.w3.org/2000/svg">
<g id="Job Responsibility Bag Thumbs Up" clip-path="url(#clip0_737_3357)">
<path id="Vector" d="M16.225 16.25H21.225C21.7554 16.25 22.2641 16.0393 22.6392 15.6642C23.0143 15.2891 23.225 14.7804 23.225 14.25V5.75C23.225 5.21957 23.0143 4.71086 22.6392 4.33579C22.2641 3.96071 21.7554 3.75 21.225 3.75H7.72501C7.19457 3.75 6.68587 3.96071 6.31079 4.33579C5.93572 4.71086 5.72501 5.21957 5.72501 5.75V8.75" stroke="white" stroke-width="1.5" stroke-linecap="round" stroke-linejoin="round"/>
<path id="Vector_2" d="M23.225 8.75H10.725" stroke="white" stroke-width="1.5" stroke-linecap="round" stroke-linejoin="round"/>
<path id="Vector_3" d="M14.725 8.75V10.75" stroke="white" stroke-width="1.5" stroke-linecap="round" stroke-linejoin="round"/>
<path id="Vector_4" d="M11.725 3.75H17.725L17.364 1.586C17.3252 1.3525 17.2048 1.14034 17.0243 0.98726C16.8437 0.834181 16.6147 0.750109 16.378 0.75H13.072C12.8353 0.750109 12.6063 0.834181 12.4258 0.98726C12.2452 1.14034 12.1248 1.3525 12.086 1.586L11.725 3.75Z" stroke="white" stroke-width="1.5" stroke-linecap="round" stroke-linejoin="round"/>
<path id="Vector_5" d="M2.97501 22.3999C3.28233 22.404 3.58785 22.4477 3.88401 22.5299L6.00001 23.1159C6.31292 23.2029 6.63621 23.247 6.96101 23.2469H9.81401C10.6709 23.2581 11.5015 22.9513 12.1454 22.3858C12.7893 21.8202 13.2006 21.0361 13.3 20.1849L13.475 17.2969C13.4993 16.7 13.3142 16.1135 12.9517 15.6387C12.5892 15.1639 12.0722 14.8307 11.49 14.6969L10.641 14.5159C10.454 14.473 10.2869 14.3684 10.1666 14.2189C10.0463 14.0694 9.97989 13.8837 9.97801 13.6919V11.7719C9.96857 11.4301 9.82615 11.1054 9.58104 10.867C9.33593 10.6285 9.00746 10.4951 8.66551 10.4951C8.32355 10.4951 7.99509 10.6285 7.74997 10.867C7.50486 11.1054 7.36244 11.4301 7.35301 11.7719V12.6519C7.33563 13.7957 6.86465 14.8858 6.04365 15.6824C5.22264 16.4791 4.11885 16.917 2.97501 16.8999V22.3999Z" stroke="white" stroke-width="1.5" stroke-linecap="round" stroke-linejoin="round"/>
<path id="Vector_6" d="M0.774994 15.75H2.97499V23.25H0.774994" stroke="white" stroke-width="1.5" stroke-linecap="round" stroke-linejoin="round"/>
</g>
<defs>
<clipPath id="clip0_737_3357">
<rect width="24" height="24" fill="white"/>
</clipPath>
</defs>
</svg>
