<svg width="24" height="24" viewBox="0 0 24 24" fill="none" xmlns="http://www.w3.org/2000/svg">
<g id="ph:read-cv-logo-thin">
<path id="Vector" d="M19.6959 4.04898L7.48499 1.89273C7.33947 1.86695 7.19029 1.87011 7.04599 1.90201C6.90168 1.9339 6.76507 1.99392 6.64397 2.07863C6.52287 2.16335 6.41964 2.27109 6.34019 2.39571C6.26074 2.52032 6.20662 2.65938 6.18093 2.80492L3.39187 18.6487C3.34009 18.9424 3.4071 19.2447 3.57816 19.4891C3.74921 19.7335 4.01032 19.8999 4.30406 19.9518L16.5159 22.108C16.5812 22.12 16.6474 22.126 16.7137 22.1259C16.9778 22.1252 17.2333 22.0317 17.4354 21.8617C17.6375 21.6917 17.7733 21.4559 17.8191 21.1959L20.6081 5.3521C20.6599 5.05834 20.5929 4.75604 20.4218 4.51167C20.2508 4.26731 19.9897 4.10088 19.6959 4.04898ZM19.8694 5.22179L17.0803 21.0655C17.0632 21.1635 17.0078 21.2506 16.9264 21.3078C16.845 21.3649 16.7442 21.3874 16.6462 21.3702L4.43437 19.214C4.33658 19.1966 4.24967 19.1411 4.19273 19.0598C4.13578 18.9784 4.11345 18.8777 4.13062 18.7799L6.91968 2.93617C6.93684 2.8382 6.99221 2.75107 7.07361 2.69393C7.15501 2.63679 7.25578 2.61432 7.35374 2.63148L19.5656 4.78773C19.6634 4.8051 19.7503 4.86056 19.8073 4.94194C19.8642 5.02332 19.8865 5.12396 19.8694 5.22179ZM17.2631 7.0471C17.2477 7.13369 17.2024 7.21211 17.1351 7.26866C17.0677 7.32521 16.9826 7.3563 16.8947 7.35648C16.8727 7.35647 16.8507 7.35458 16.8291 7.35085L9.04781 5.97648C8.94984 5.9592 8.86276 5.90371 8.8057 5.82222C8.74865 5.74073 8.72631 5.63991 8.74359 5.54195C8.76087 5.44398 8.81636 5.35689 8.89785 5.29984C8.97934 5.24279 9.08016 5.22045 9.17812 5.23773L16.9594 6.6121C17.0079 6.6207 17.0542 6.63878 17.0958 6.6653C17.1373 6.69181 17.1732 6.72626 17.2014 6.76666C17.2296 6.80705 17.2496 6.85262 17.2602 6.90074C17.2708 6.94886 17.2718 6.99859 17.2631 7.0471ZM16.7437 10.0012C16.7285 10.0881 16.6831 10.1668 16.6156 10.2236C16.548 10.2804 16.4626 10.3115 16.3744 10.3115C16.3523 10.3116 16.3303 10.3094 16.3087 10.3049L8.53124 8.93148C8.48274 8.92292 8.43639 8.90489 8.39485 8.87843C8.35331 8.85196 8.31739 8.81757 8.28914 8.77722C8.26089 8.73687 8.24087 8.69135 8.23021 8.64326C8.21955 8.59517 8.21847 8.54545 8.22703 8.49695C8.23558 8.44844 8.25361 8.40209 8.28008 8.36055C8.30655 8.31901 8.34094 8.28309 8.38129 8.25484C8.42164 8.22659 8.46715 8.20657 8.51524 8.19591C8.56333 8.18525 8.61305 8.18417 8.66156 8.19273L16.4428 9.5671C16.5401 9.58513 16.6263 9.64086 16.6827 9.72216C16.739 9.80347 16.761 9.90375 16.7437 10.0012ZM12.3375 12.269C12.3221 12.3557 12.2766 12.4343 12.2091 12.4908C12.1415 12.5474 12.0562 12.5784 11.9681 12.5784C11.9461 12.5783 11.9242 12.5764 11.9025 12.5727L8.01281 11.8855C7.96256 11.879 7.91416 11.8623 7.87053 11.8366C7.8269 11.8108 7.78894 11.7764 7.75896 11.7356C7.72897 11.6947 7.70758 11.6482 7.69606 11.5989C7.68455 11.5495 7.68316 11.4984 7.69197 11.4485C7.70079 11.3986 7.71962 11.351 7.74734 11.3085C7.77506 11.2661 7.81109 11.2298 7.85326 11.2017C7.89542 11.1735 7.94285 11.1543 7.99267 11.145C8.04249 11.1357 8.09367 11.1367 8.14312 11.1477L12.0328 11.834C12.1303 11.852 12.2166 11.9079 12.273 11.9894C12.3294 12.0709 12.3513 12.1714 12.3337 12.269H12.3375Z" fill="white"/>
</g>
</svg>
